<svg xmlns="http://www.w3.org/2000/svg" width="231" height="297" viewBox="0 0 231 297"><defs><clipPath id="y6rla"><path fill="#fff" d="M1 115C1 51.487 52.487 0 116 0s115 51.487 115 115-51.487 115-115 115S1 178.513 1 115z"/></clipPath></defs><g><g><path fill="#fff" d="M1 115C1 51.487 52.487 0 116 0s115 51.487 115 115-51.487 115-115 115S1 178.513 1 115z"/><path fill="none" stroke="#4e1e67" stroke-miterlimit="50" stroke-width="6" d="M1 115C1 51.487 52.487 0 116 0s115 51.487 115 115-51.487 115-115 115S1 178.513 1 115z" clip-path="url(&quot;#y6rla&quot;)"/></g><g><path fill="#fff" d="M0 297V169h194v128z"/></g><g><path fill="#4e1e67" d="M188 196a6 6 0 1 1 12 0 6 6 0 0 1-12 0z"/></g><g><path fill="#4e1e67" d="M12 169a4 4 0 1 1 8 0 4 4 0 0 1-8 0z"/></g></g></svg>