<?xml version="1.0" encoding="utf-8"?>
<!-- Generator: Adobe Illustrator 18.1.1, SVG Export Plug-In . SVG Version: 6.00 Build 0)  -->
<svg version="1.1" id="Layer_1" xmlns="http://www.w3.org/2000/svg" xmlns:xlink="http://www.w3.org/1999/xlink" x="0px" y="0px"
	 viewBox="-191.2 425.6 612 564.2" enable-background="new -191.2 425.6 612 564.2" xml:space="preserve">
<path fill="#FFFFFF" stroke="#4E1E67" stroke-width="6" stroke-miterlimit="50" d="M-150.2,888.3c-24.2-44.5-37.9-95.6-37.9-150.1
	c0-167.3,130-303.8,292.6-309.4c175-6.1,319.3,141.5,313.3,320.3c-3.1,92.4-45.8,174.4-111.4,229.1"/>
<path fill="#FFFFFF" d="M-126.5,910.3c-8.4-11.4-16.1-23.5-22.9-36"/>
<path fill="#4E1E67" d="M294.6,974c0-8.7,7.2-15.8,15.8-15.8c8.7,0,15.8,7.2,15.8,15.8c0,8.7-7.2,15.8-15.8,15.8
	C301.8,989.8,294.6,982.7,294.6,974z"/>
<path fill="#4E1E67" d="M-145.2,897.9c-1.3,0.6-2.8,0.9-4.3,0.9c-5.8,0-10.5-4.7-10.5-10.5c0-5.8,4.8-10.5,10.5-10.5
	s10.5,4.8,10.5,10.5C-138.9,892.5-141.5,896.2-145.2,897.9"/>
</svg>
