<?xml version="1.0" encoding="UTF-8"?>
<svg enable-background="new -186.8 304.3 612 612" version="1.1" viewBox="-186.8 304.3 612 612" xml:space="preserve" xmlns="http://www.w3.org/2000/svg" xmlns:xlink="http://www.w3.org/1999/xlink">
				<defs>
					<path id="b" d="m-11.3 887.1c-103.7-49-175.5-154.5-175.5-276.8 0-169 137-306 306-306s306 137 306 306-137 306-306 306c-46.7 0-90.9-10.5-130.5-29.2"/>
				</defs>
				<clipPath id="a">
					<use overflow="visible" xlink:href="#b"/>
				</clipPath>
				<path d="m-136.6 778.3c-40.4-62.3-58.4-136.3-48.4-210.3 7-44 20-83 44-121 7-10 14-19 21-29 12-15 26-28 40-41 9-8 19-13 28-21 2-2 5-2 8-4l3-3 15-9c78-44 171-48 253-17 7 3 13 5 20 8 11 5 21 12 32 18 2 1 4 3 6 5 74 45 121 116 135 200 10 57 6 113-15.2 166.3" clip-path="url(#a)" fill="none" stroke="#5DC720" stroke-miterlimit="50" stroke-width="6"/>
		<path d="m387.4 705.1c0-8.8 7.2-16 16-16s16 7.2 16 16-7.2 16-16 16c-8.8-0.1-16-7.3-16-16z" fill="#5DC720"/>
		<path d="m-135 778.6c-1.4 0.6-2.9 1-4.5 1-5.9 0-10.6-4.8-10.6-10.6s4.8-10.6 10.6-10.6c5.9 0 10.6 4.8 10.6 10.6 0.1 4.2-2.4 7.9-6.1 9.6" fill="#5DC720"/>
</svg>
