<?xml version="1.0" encoding="utf-8"?>
<!-- Generator: Adobe Illustrator 18.1.1, SVG Export Plug-In . SVG Version: 6.00 Build 0)  -->
<svg version="1.1" id="Layer_1" xmlns="http://www.w3.org/2000/svg" xmlns:xlink="http://www.w3.org/1999/xlink" x="0px" y="0px"
	 viewBox="-187 345 618 615" enable-background="new -187 345 618 615" xml:space="preserve">
<g>
	<g>
		<path fill="#FFFFFF" d="M-184,654c0-169,137-306,306-306s306,137,306,306S291,960,122,960S-184,823-184,654z"/>
		<g>
			<g>
				<defs>
					<circle id="SVGID_1_" cx="122" cy="654" r="306"/>
				</defs>
				<clipPath id="SVGID_2_">
					<use xlink:href="#SVGID_1_"  overflow="visible"/>
				</clipPath>
				<path clip-path="url(#SVGID_2_)" fill="none" stroke="#EE5218" stroke-width="6" stroke-miterlimit="50" d="M-49.1,907.8
					C-130.5,852.8-184,759.6-184,654c0-169,137-306,306-306s306,137,306,306c0,41-8,80.4-22.9,116"/>
			</g>
		</g>
	</g>
	<g>
		<path fill="#EE5218" d="M388.9,763.1c0-8.8,7.2-16,16-16c8.8,0,16,7.2,16,16s-7.2,16-16,16C396.1,779.1,388.9,771.9,388.9,763.1z"
			/>
	</g>
	<g>
		<circle fill="#EE5218" cx="-53.6" cy="898.8" r="10.6"/>
	</g>
</g>
</svg>
