<?xml version="1.0" encoding="UTF-8"?>
<svg enable-background="new -187 310 618 623" version="1.1" viewBox="-187 310 618 623" xml:space="preserve" xmlns="http://www.w3.org/2000/svg" xmlns:xlink="http://www.w3.org/1999/xlink">
		<path d="m-184 619c0-169 137-306 306-306s306 137 306 306-137 306-306 306-306-137.1-306-306z" fill="#fff"/>
					<defs>
						<circle id="b" cx="122" cy="619" r="306"/>
					</defs>
					<clipPath id="a">
						<use overflow="visible" xlink:href="#b"/>
					</clipPath>
					<path d="m-184 619c0-169 137-306 306-306s306 137 306 306-137 306-306 306-306-137.1-306-306z" clip-path="url(#a)" fill="none" stroke="#EE5218" stroke-miterlimit="50" stroke-width="13"/>
		<path d="M-56.3,933V709.4H428V933H-56.3z" fill="#fff"/>
		<path d="m396.1 712c0-8.8 7.2-16 16-16s16 7.2 16 16-7.2 16-16 16-16-7.1-16-16z" fill="#EE5218"/>
		<path d="m-69.6 861c0-5.9 4.8-10.6 10.6-10.6s10.6 4.8 10.6 10.6-4.8 10.6-10.6 10.6-10.6-4.6-10.6-10.6z" fill="#EE5218"/>
</svg>
V933H-56.3z"/>
	</g>
	<g>
		<path fill="#EE5218" d="M396.1,712c0-8.8,7.2-16,16-16s16,7.2,16,16s-7.2,16-16,16S396.1,720.9,396.1,712z"/>
	</g>
	<g>
		<path fill="#EE5218" d="M-69.6,861c0-5.9,4.8-10.6,10.6-10.6s10.6,4.8,10.6,10.6s-4.8,10.6-10.6,10.6S-69.6,867-69.6,861z"/>
	</g>
</g>
</svg>
