<svg xmlns="http://www.w3.org/2000/svg" width="20" height="29" viewBox="0 0 20 29"><g><g><g><path fill="#fff" d="M10 14.36a2.447 2.447 0 0 1-2.442-2.443A2.437 2.437 0 0 1 10 9.475a2.437 2.437 0 0 1 2.442 2.442A2.447 2.447 0 0 1 10 14.36zm0-6.865a4.423 4.423 0 1 0 0 8.845 4.423 4.423 0 0 0 0-8.845z"/></g><g><path fill="#fff" d="M10.314 26.422c-2.146-2.574-8.317-10.38-8.317-15.313 0-3.994 2.425-8.3 7.722-8.3 5.396 0 8.3 4.273 8.3 8.3 0 5.808-5.66 12.92-7.705 15.313zm7.03-22.294c-1.337-1.501-3.763-3.3-7.641-3.3C3.333.828 0 6.01 0 11.125c0 6.7 9.158 17.046 9.554 17.492a.958.958 0 0 0 .727.346h.016c.28 0 .528-.132.726-.33.1-.099 2.26-2.442 4.456-5.726C18.482 18.42 20 14.442 20 11.108c0-2.54-.974-5.082-2.657-6.98z"/></g></g></g></svg>