<svg xmlns="http://www.w3.org/2000/svg" width="20" height="20" viewBox="0 0 20 20"><g><g><g><path fill="#fff" d="M1.476 9.792l1.46-4.323h2.469v1.797c0 .37.303.673.674.673h7.858c.37 0 .674-.303.674-.673V5.469h2.683l1.359 4.48v4.726h-3.279l-.943-2.48a.681.681 0 0 0-.628-.439H6.146c-.292 0-.55.18-.64.46l-.82 2.46h-3.21zm5.276-8.364h6.512v5.164H6.752zM5.012 17.93l1.617-4.827h6.702l1.83 4.827zm-4.21-1.909h3.435l-.797 2.37a.688.688 0 0 0 .09.606c.124.18.326.28.55.28h12.058a.666.666 0 0 0 .55-.292.673.673 0 0 0 .079-.617l-.887-2.347h3.446c.37 0 .674-.303.674-.673V9.848a.524.524 0 0 0-.034-.191L18.44 4.605a.684.684 0 0 0-.64-.483h-3.188V.754a.676.676 0 0 0-.674-.674H6.08a.676.676 0 0 0-.674.674v3.368H2.452c-.292 0-.55.18-.64.46L.162 9.466a.704.704 0 0 0-.034.213v5.67c0 .37.304.673.674.673z"/></g></g></g></svg>