<svg xmlns="http://www.w3.org/2000/svg" width="20" height="20" viewBox="0 0 20 20"><g><g><g><path fill="#fff" d="M1.99 15.466l3.414-3.414c.127-.126.33-.113.468.026l1.897 1.896a.77.77 0 0 0 1.074 0l5.626-5.626a.78.78 0 0 0 .228-.53.728.728 0 0 0-.228-.532L12.6 5.39c-.14-.14-.165-.367-.039-.493l3.414-3.414a.23.23 0 0 1 .177-.076c.1 0 .215.05.29.127l1.113 1.112.367.556c1.2 2.782.366 5.437-.936 6.726l-6.561 6.587c-1 1-2.428 1.543-4.046 1.543-.948 0-1.897-.19-2.731-.556l-.582-.354-1.125-1.126c-.076-.076-.076-.19-.076-.24a.598.598 0 0 1 .127-.316zm.064 2.807c.038.038.088.076.139.114l.695.43c.026.012.064.037.089.05a8.406 8.406 0 0 0 3.4.708c2.024 0 3.832-.708 5.109-1.985l6.561-6.562c2.036-2.035 2.541-5.525 1.226-8.483-.012-.038-.037-.076-.063-.114l-.442-.67c-.026-.038-.063-.076-.089-.114L17.503.472a1.934 1.934 0 0 0-1.365-.57c-.468 0-.923.19-1.252.519l-3.413 3.414c-.72.72-.695 1.896.038 2.63l1.34 1.34-4.564 4.564-1.366-1.366c-.328-.367-.796-.556-1.302-.556-.48 0-.935.19-1.29.53L.917 14.392a2.019 2.019 0 0 0-.569 1.315 1.827 1.827 0 0 0 .519 1.378z"/></g></g></g></svg>