<svg xmlns="http://www.w3.org/2000/svg" width="230" height="267" viewBox="0 0 230 267"><defs><clipPath id="6orpa"><path fill="#fff" d="M0 115C0 51.487 51.487 0 115 0s115 51.487 115 115-51.487 115-115 115S0 178.513 0 115z"/></clipPath></defs><g><g><path fill="#fff" d="M0 115C0 51.487 51.487 0 115 0s115 51.487 115 115-51.487 115-115 115S0 178.513 0 115z"/><path fill="none" stroke="#5dc720" stroke-miterlimit="50" stroke-width="6" d="M0 115C0 51.487 51.487 0 115 0s115 51.487 115 115-51.487 115-115 115S0 178.513 0 115z" clip-path="url(&quot;#6orpa&quot;)"/></g><g><path fill="#fff" d="M19 267V139h204v128z"/></g><g><path fill="#5dc720" d="M217 151a6 6 0 1 1 12 0 6 6 0 0 1-12 0z"/></g><g><path fill="#5dc720" d="M15 175a4 4 0 1 1 8 0 4 4 0 0 1-8 0z"/></g></g></svg>